<svg id="visual" viewBox="0 0 900 600" width="900" height="600" xmlns="http://www.w3.org/2000/svg" xmlns:xlink="http://www.w3.org/1999/xlink" version="1.1"><g stroke-width="1" stroke-linejoin="bevel"><path d="M501 327L536 395L560 386Z" fill="#112e42" stroke="#112e42"></path><path d="M560 386L610 332L501 327Z" fill="#1d4e6b" stroke="#1d4e6b"></path><path d="M563 217L473 232L501 327Z" fill="#205a7a" stroke="#205a7a"></path><path d="M610 332L563 217L501 327Z" fill="#205a7a" stroke="#205a7a"></path><path d="M675 382L672 333L610 332Z" fill="#0c2435" stroke="#0c2435"></path><path d="M610 332L672 333L563 217Z" fill="#205a7a" stroke="#205a7a"></path><path d="M536 395L607 473L560 386Z" fill="#246688" stroke="#246688"></path><path d="M560 386L675 382L610 332Z" fill="#19435d" stroke="#19435d"></path><path d="M607 473L675 382L560 386Z" fill="#277297" stroke="#277297"></path><path d="M438 497L531 515L536 395Z" fill="#081a28" stroke="#081a28"></path><path d="M536 395L531 515L607 473Z" fill="#1d4e6b" stroke="#1d4e6b"></path><path d="M372 413L536 395L501 327Z" fill="#15384f" stroke="#15384f"></path><path d="M366 274L372 413L501 327Z" fill="#1d4e6b" stroke="#1d4e6b"></path><path d="M372 413L438 497L536 395Z" fill="#0c2435" stroke="#0c2435"></path><path d="M473 232L366 274L501 327Z" fill="#112e42" stroke="#112e42"></path><path d="M587 600L676 483L607 473Z" fill="#19435d" stroke="#19435d"></path><path d="M607 473L676 483L675 382Z" fill="#277297" stroke="#277297"></path><path d="M366 274L322 381L372 413Z" fill="#1d4e6b" stroke="#1d4e6b"></path><path d="M372 413L334 536L438 497Z" fill="#0c2435" stroke="#0c2435"></path><path d="M473 232L364 222L366 274Z" fill="#205a7a" stroke="#205a7a"></path><path d="M366 274L297 266L322 381Z" fill="#277297" stroke="#277297"></path><path d="M428 111L364 222L473 232Z" fill="#081a28" stroke="#081a28"></path><path d="M589 62L509 131L563 217Z" fill="#00101c" stroke="#00101c"></path><path d="M563 217L509 131L473 232Z" fill="#205a7a" stroke="#205a7a"></path><path d="M803 309L733 232L672 333Z" fill="#081a28" stroke="#081a28"></path><path d="M672 333L733 232L563 217Z" fill="#246688" stroke="#246688"></path><path d="M777 402L672 333L675 382Z" fill="#0c2435" stroke="#0c2435"></path><path d="M676 483L777 402L675 382Z" fill="#112e42" stroke="#112e42"></path><path d="M396 600L486 600L438 497Z" fill="#081a28" stroke="#081a28"></path><path d="M438 497L486 600L531 515Z" fill="#297ea6" stroke="#297ea6"></path><path d="M531 515L587 600L607 473Z" fill="#112e42" stroke="#112e42"></path><path d="M364 222L297 266L366 274Z" fill="#15384f" stroke="#15384f"></path><path d="M486 600L587 600L531 515Z" fill="#19435d" stroke="#19435d"></path><path d="M676 483L792 508L777 402Z" fill="#19435d" stroke="#19435d"></path><path d="M428 111L325 197L364 222Z" fill="#19435d" stroke="#19435d"></path><path d="M364 222L325 197L297 266Z" fill="#00101c" stroke="#00101c"></path><path d="M509 131L428 111L473 232Z" fill="#297ea6" stroke="#297ea6"></path><path d="M803 309L767 224L733 232Z" fill="#112e42" stroke="#112e42"></path><path d="M696 79L589 62L563 217Z" fill="#1d4e6b" stroke="#1d4e6b"></path><path d="M322 381L334 536L372 413Z" fill="#00101c" stroke="#00101c"></path><path d="M317 600L334 536L185 497Z" fill="#19435d" stroke="#19435d"></path><path d="M777 402L803 309L672 333Z" fill="#00101c" stroke="#00101c"></path><path d="M334 536L396 600L438 497Z" fill="#00101c" stroke="#00101c"></path><path d="M696 79L563 217L733 232Z" fill="#205a7a" stroke="#205a7a"></path><path d="M509 131L492 0L428 111Z" fill="#15384f" stroke="#15384f"></path><path d="M712 600L792 508L676 483Z" fill="#277297" stroke="#277297"></path><path d="M777 402L900 370L803 309Z" fill="#15384f" stroke="#15384f"></path><path d="M587 600L712 600L676 483Z" fill="#00101c" stroke="#00101c"></path><path d="M767 224L696 79L733 232Z" fill="#19435d" stroke="#19435d"></path><path d="M185 497L334 536L322 381Z" fill="#0c2435" stroke="#0c2435"></path><path d="M334 536L317 600L396 600Z" fill="#15384f" stroke="#15384f"></path><path d="M712 600L766 600L792 508Z" fill="#205a7a" stroke="#205a7a"></path><path d="M418 0L281 107L428 111Z" fill="#112e42" stroke="#112e42"></path><path d="M428 111L281 107L325 197Z" fill="#246688" stroke="#246688"></path><path d="M325 197L202 205L297 266Z" fill="#205a7a" stroke="#205a7a"></path><path d="M297 266L173 312L322 381Z" fill="#15384f" stroke="#15384f"></path><path d="M624 0L492 0L589 62Z" fill="#1d4e6b" stroke="#1d4e6b"></path><path d="M589 62L492 0L509 131Z" fill="#1d4e6b" stroke="#1d4e6b"></path><path d="M202 205L173 312L297 266Z" fill="#081a28" stroke="#081a28"></path><path d="M281 107L202 205L325 197Z" fill="#205a7a" stroke="#205a7a"></path><path d="M173 312L171 382L322 381Z" fill="#15384f" stroke="#15384f"></path><path d="M696 79L624 0L589 62Z" fill="#19435d" stroke="#19435d"></path><path d="M900 499L777 402L792 508Z" fill="#00101c" stroke="#00101c"></path><path d="M900 499L900 370L777 402Z" fill="#112e42" stroke="#112e42"></path><path d="M803 309L900 186L767 224Z" fill="#19435d" stroke="#19435d"></path><path d="M767 224L827 120L696 79Z" fill="#205a7a" stroke="#205a7a"></path><path d="M900 370L900 326L803 309Z" fill="#1d4e6b" stroke="#1d4e6b"></path><path d="M492 0L418 0L428 111Z" fill="#205a7a" stroke="#205a7a"></path><path d="M900 186L827 120L767 224Z" fill="#277297" stroke="#277297"></path><path d="M696 79L689 0L624 0Z" fill="#00101c" stroke="#00101c"></path><path d="M171 382L185 497L322 381Z" fill="#297ea6" stroke="#297ea6"></path><path d="M799 0L689 0L696 79Z" fill="#0c2435" stroke="#0c2435"></path><path d="M900 600L900 499L792 508Z" fill="#081a28" stroke="#081a28"></path><path d="M900 326L900 186L803 309Z" fill="#1d4e6b" stroke="#1d4e6b"></path><path d="M173 312L122 386L171 382Z" fill="#00101c" stroke="#00101c"></path><path d="M171 382L122 386L185 497Z" fill="#205a7a" stroke="#205a7a"></path><path d="M61 296L122 386L173 312Z" fill="#0c2435" stroke="#0c2435"></path><path d="M281 107L198 100L202 205Z" fill="#1d4e6b" stroke="#1d4e6b"></path><path d="M202 205L105 229L173 312Z" fill="#297ea6" stroke="#297ea6"></path><path d="M229 0L198 100L281 107Z" fill="#081a28" stroke="#081a28"></path><path d="M900 67L799 0L827 120Z" fill="#081a28" stroke="#081a28"></path><path d="M827 120L799 0L696 79Z" fill="#277297" stroke="#277297"></path><path d="M766 600L900 600L792 508Z" fill="#081a28" stroke="#081a28"></path><path d="M102 538L166 600L185 497Z" fill="#15384f" stroke="#15384f"></path><path d="M185 497L166 600L317 600Z" fill="#00101c" stroke="#00101c"></path><path d="M418 0L263 0L281 107Z" fill="#112e42" stroke="#112e42"></path><path d="M120 125L202 205L198 100Z" fill="#19435d" stroke="#19435d"></path><path d="M120 125L105 229L202 205Z" fill="#246688" stroke="#246688"></path><path d="M900 186L900 67L827 120Z" fill="#19435d" stroke="#19435d"></path><path d="M263 0L229 0L281 107Z" fill="#112e42" stroke="#112e42"></path><path d="M0 479L102 538L122 386Z" fill="#19435d" stroke="#19435d"></path><path d="M122 386L102 538L185 497Z" fill="#19435d" stroke="#19435d"></path><path d="M79 0L120 125L198 100Z" fill="#277297" stroke="#277297"></path><path d="M0 314L61 296L0 220Z" fill="#1d4e6b" stroke="#1d4e6b"></path><path d="M105 229L61 296L173 312Z" fill="#00101c" stroke="#00101c"></path><path d="M900 67L900 0L799 0Z" fill="#1d4e6b" stroke="#1d4e6b"></path><path d="M0 479L65 600L102 538Z" fill="#081a28" stroke="#081a28"></path><path d="M102 538L65 600L166 600Z" fill="#00101c" stroke="#00101c"></path><path d="M0 220L61 296L105 229Z" fill="#1d4e6b" stroke="#1d4e6b"></path><path d="M61 296L0 314L122 386Z" fill="#19435d" stroke="#19435d"></path><path d="M0 314L0 427L122 386Z" fill="#112e42" stroke="#112e42"></path><path d="M0 427L0 479L122 386Z" fill="#297ea6" stroke="#297ea6"></path><path d="M120 125L0 220L105 229Z" fill="#15384f" stroke="#15384f"></path><path d="M0 64L0 220L120 125Z" fill="#19435d" stroke="#19435d"></path><path d="M229 0L79 0L198 100Z" fill="#00101c" stroke="#00101c"></path><path d="M0 479L0 600L65 600Z" fill="#081a28" stroke="#081a28"></path><path d="M79 0L0 64L120 125Z" fill="#1d4e6b" stroke="#1d4e6b"></path><path d="M79 0L0 0L0 64Z" fill="#15384f" stroke="#15384f"></path></g></svg>